<svg xmlns="http://www.w3.org/2000/svg" width="217" height="265" viewBox="0 0 217 265">
<path d="M 26 14 L 19 20 L 18 22 L 17 26 L 17 29 L 20 39 L 14 38 L 13 36 L 12 32 L 12 37 L 14 45 L 17 48 L 13 49 L 11 48 L 8 45 L 8 40 L 9 38 L 7 40 L 5 45 L 5 52 L 6 56 L 9 61 L 11 63 L 15 65 L 7 66 L 5 65 L 4 64 L 4 63 L 2 61 L 1 58 L 1 55 L 0 57 L 0 64 L 2 68 L 7 73 L 10 75 L 16 77 L 12 81 L 9 81 L 5 78 L 5 80 L 10 85 L 15 86 L 17 85 L 22 84 L 21 91 L 22 93 L 24 95 L 29 97 L 26 93 L 27 90 L 32 87 L 33 91 L 32 92 L 31 97 L 31 108 L 34 113 L 35 116 L 35 121 L 32 127 L 27 134 L 21 140 L 18 144 L 18 149 L 20 151 L 27 154 L 30 157 L 30 160 L 27 165 L 27 168 L 29 170 L 32 171 L 33 173 L 31 176 L 31 179 L 32 181 L 37 185 L 37 191 L 36 200 L 39 205 L 44 208 L 49 209 L 66 208 L 77 206 L 81 206 L 84 207 L 87 210 L 89 214 L 90 218 L 90 222 L 91 225 L 93 229 L 95 231 L 97 235 L 100 245 L 100 253 L 99 256 L 95 262 L 93 264 L 103 264 L 112 262 L 127 257 L 132 254 L 145 249 L 164 243 L 175 241 L 193 241 L 192 238 L 186 230 L 181 222 L 176 212 L 172 200 L 170 191 L 170 189 L 171 188 L 172 185 L 175 187 L 174 185 L 175 179 L 177 173 L 180 167 L 184 161 L 189 156 L 193 149 L 193 148 L 194 146 L 197 145 L 199 142 L 204 130 L 205 126 L 206 131 L 205 133 L 206 131 L 207 130 L 210 120 L 210 116 L 212 108 L 214 105 L 215 102 L 215 97 L 214 96 L 215 90 L 216 92 L 216 82 L 214 74 L 210 66 L 209 63 L 211 61 L 211 57 L 210 53 L 208 49 L 205 45 L 200 41 L 195 39 L 190 39 L 185 37 L 187 33 L 187 25 L 186 22 L 184 19 L 181 16 L 180 16 L 178 15 L 182 19 L 183 22 L 183 32 L 181 34 L 180 30 L 178 25 L 175 20 L 168 13 L 164 10 L 154 6 L 149 6 L 151 6 L 158 10 L 159 15 L 157 13 L 146 8 L 142 8 L 140 6 L 138 5 L 127 5 L 122 4 L 114 1 L 108 0 L 105 0 L 104 1 L 100 1 L 98 2 L 106 2 L 111 4 L 103 6 L 93 6 L 86 8 L 66 8 L 64 7 L 63 2 L 65 0 L 63 1 L 62 1 L 60 3 L 59 5 L 59 7 L 60 9 L 65 14 L 60 16 L 53 16 L 51 14 L 52 8 L 49 9 L 48 12 L 46 15 L 45 18 L 47 17 L 53 18 L 51 20 L 47 21 L 41 24 L 33 24 L 29 22 L 30 25 L 32 27 L 34 28 L 31 29 L 27 27 L 23 23 L 23 19 Z" fill="#2b2856"/>
</svg>