<svg xmlns="http://www.w3.org/2000/svg" width="90" height="77" viewBox="0 0 90 77">
<path d="M 42 0 L 39 1 L 39 7 L 41 11 L 44 14 L 49 17 L 54 22 L 54 24 L 52 26 L 48 28 L 42 29 L 36 29 L 35 28 L 27 27 L 6 27 L 3 31 L 6 34 L 15 35 L 22 35 L 33 37 L 36 40 L 34 42 L 31 43 L 22 43 L 15 44 L 8 46 L 3 46 L 1 47 L 1 53 L 17 53 L 29 51 L 36 54 L 18 58 L 12 58 L 8 59 L 6 61 L 6 63 L 8 65 L 19 65 L 29 64 L 34 62 L 40 61 L 42 63 L 40 65 L 33 68 L 30 69 L 27 69 L 22 71 L 22 75 L 25 76 L 33 75 L 46 70 L 51 69 L 65 69 L 70 68 L 76 66 L 78 65 L 82 62 L 86 61 L 86 58 L 87 57 L 89 48 L 89 45 L 86 38 L 86 33 L 84 33 L 76 24 L 70 18 L 65 15 L 61 14 L 57 12 L 48 6 Z" fill="#2b2856"/>
</svg>