<svg xmlns="http://www.w3.org/2000/svg" width="94" height="78" viewBox="0 0 94 78">
<path d="M 48 1 L 37 9 L 33 11 L 29 15 L 22 18 L 13 27 L 9 32 L 8 35 L 4 39 L 3 43 L 3 46 L 0 52 L 0 54 L 2 56 L 4 64 L 5 66 L 6 67 L 18 72 L 22 73 L 46 73 L 51 74 L 56 76 L 60 76 L 61 77 L 64 77 L 73 75 L 72 71 L 67 71 L 62 70 L 53 67 L 51 65 L 59 64 L 82 65 L 85 64 L 87 62 L 86 59 L 84 58 L 71 58 L 58 56 L 56 54 L 88 53 L 91 52 L 93 50 L 93 48 L 91 46 L 88 45 L 76 44 L 59 44 L 55 42 L 56 39 L 70 35 L 78 34 L 83 33 L 85 32 L 87 30 L 87 28 L 85 26 L 73 26 L 64 27 L 52 30 L 43 30 L 39 29 L 37 28 L 35 26 L 35 24 L 36 22 L 40 18 L 41 18 L 46 13 L 49 7 L 49 3 Z" fill="#2b2856"/>
</svg>