<svg xmlns="http://www.w3.org/2000/svg" width="76" height="238" viewBox="0 0 76 238">
<path d="M 43 0 L 33 0 L 28 1 L 20 4 L 14 8 L 10 12 L 7 16 L 4 22 L 2 28 L 0 37 L 0 61 L 2 69 L 5 78 L 8 82 L 9 84 L 10 94 L 10 105 L 13 128 L 14 133 L 20 155 L 22 167 L 22 171 L 21 175 L 19 180 L 15 188 L 11 200 L 9 208 L 4 234 L 4 236 L 8 236 L 9 237 L 44 236 L 44 234 L 47 229 L 64 183 L 63 165 L 63 156 L 64 134 L 66 118 L 67 98 L 66 80 L 73 62 L 75 53 L 75 36 L 74 30 L 72 24 L 66 13 L 60 7 L 57 5 L 53 3 Z" fill="#2b2856"/>
</svg>