<svg xmlns="http://www.w3.org/2000/svg" width="218" height="237" viewBox="0 0 218 237">
<path d="M 191 27 L 185 23 L 165 13 L 154 9 L 152 7 L 137 0 L 132 0 L 115 6 L 98 9 L 81 9 L 73 7 L 71 7 L 66 11 L 51 20 L 36 28 L 34 28 L 27 32 L 21 36 L 18 39 L 16 42 L 13 48 L 9 61 L 7 72 L 6 80 L 6 90 L 3 109 L 0 119 L 0 123 L 2 125 L 11 130 L 23 133 L 25 135 L 26 146 L 26 165 L 24 190 L 22 200 L 20 223 L 20 234 L 27 234 L 28 235 L 49 236 L 129 236 L 153 235 L 154 234 L 164 234 L 164 228 L 162 216 L 161 203 L 161 186 L 162 178 L 165 161 L 168 148 L 171 138 L 172 136 L 181 135 L 192 133 L 200 131 L 206 129 L 216 124 L 217 120 L 216 114 L 211 93 L 209 81 L 208 69 L 206 58 L 202 45 L 196 33 L 193 30 L 193 29 Z" fill="#2b2856"/>
</svg>